:FULLY-SPECIFIED
:FORCE-ALL-JOINTS-BE-3DOF
:DEGREES
612
root -4.43777 15.5938 -40.5205 352.116 -75.1806 375.049
lfemur -5.5796 13.1249 -16.2265
ltibia 42.5931 0 0
lfoot -22.7545 31.0933 0
ltoes -24.317 0 0
rfemur -43.221 -32.3264 17.5553
rtibia 79.5456 0 0
rfoot -14.4503 -18.0378 0
rtoes -2.98386 0 0
lowerback 10.38 5.03962 -7.05134
upperback -2.76427 5.59476 -1.51159
thorax -9.33037 3.03727 1.27512
lowerneck 1.49057 -11.0536 -12.1158
upperneck -1.00468 -15.0028 11.7772
head 1.24454 -7.5342 5.11455
lclavicle -5.95823e-14 3.7839e-15 0
lhumerus -76.0764 -23.7692 106.406
lradius 103.055 0 0
lwrist 58.3948 0 0
lhand 8.28068 58.2463 0
lfingers 7.12502 0 0
lthumb 33.4963 85.1631 0
rclavicle -5.95823e-14 3.7839e-15 0
rhumerus 26.6063 17.0489 -45.9759
rradius 95.6921 0 0
rwrist -27.2822 0 0
rhand -26.0315 -36.4471 0
rfingers 7.12502 0 0
rthumb 0.522257 -66.534 0
613
root -4.37684 15.6191 -40.4796 353.251 -75.3291 373.94
lfemur -6.27809 13.1843 -16.3816
ltibia 42.9316 0 0
lfoot -22.5958 30.8727 0
ltoes -24.3107 0 0
rfemur -42.6777 -32.438 17.8553
rtibia 79.5758 0 0
rfoot -14.7103 -18.5543 0
rtoes -2.98762 0 0
lowerback 10.3452 5.03265 -6.98887
upperback -2.8001 5.60117 -1.49725
thorax -9.3469 3.0376 1.25579
lowerneck 1.41876 -10.9745 -12.0641
upperneck -0.902851 -14.8953 11.7621
head 1.27504 -7.47954 5.10046
lclavicle -6.07959e-14 3.38232e-15 0
lhumerus -75.2677 -23.8435 106.167
lradius 102.884 0 0
lwrist 57.8778 0 0
lhand 8.16565 57.9512 0
lfingers 7.12502 0 0
lthumb 33.3863 84.8853 0
rclavicle -6.07959e-14 3.38232e-15 0
rhumerus 26.8088 17.1032 -46.1726
rradius 97.0529 0 0
rwrist -28.0869 0 0
rhand -25.9799 -36.154 0
rfingers 7.12502 0 0
rthumb 0.570705 -66.2203 0
614
root -4.31591 15.6445 -40.4388 354.491 -75.4679 372.717
lfemur -7.01982 13.2359 -16.5241
ltibia 43.2971 0 0
lfoot -22.4253 30.6147 0
ltoes -24.284 0 0
rfemur -42.1248 -32.5214 18.1415
rtibia 79.5543 0 0
rfoot -14.9652 -19.0475 0
rtoes -3.0222 0 0
lowerback 10.322 5.02135 -6.90858
upperback -2.83134 5.60512 -1.47442
thorax -9.36439 3.03587 1.23559
lowerneck 1.34934 -10.8883 -12.0053
upperneck -0.809755 -14.7779 11.7379
head 1.30092 -7.41997 5.08372
lclavicle -6.17967e-14 2.94975e-15 0
lhumerus -74.3514 -23.9182 105.896
lradius 102.692 0 0
lwrist 57.3016 0 0
lhand 8.05068 57.626 0
lfingers 7.12502 0 0
lthumb 33.2763 84.5777 0
rclavicle -6.17967e-14 2.94975e-15 0
rhumerus 26.9923 17.167 -46.3836
rradius 98.3151 0 0
rwrist -28.8473 0 0
rhand -25.8664 -35.8433 0
rfingers 7.12502 0 0
rthumb 0.678764 -65.8845 0
615
root -4.25497 15.6698 -40.3979 355.839 -75.5963 371.378
lfemur -7.80625 13.2792 -16.6533
ltibia 43.6903 0 0
lfoot -22.2428 30.3179 0
ltoes -24.2356 0 0
rfemur -41.5624 -32.575 18.4129
rtibia 79.4786 0 0
rfoot -15.2145 -19.5159 0
rtoes -3.08937 0 0
lowerback 10.311 5.00555 -6.8096
upperback -2.85777 5.60655 -1.44271
thorax -9.38286 3.032 1.21442
lowerneck 1.28258 -10.7948 -11.9389
upperneck -0.726147 -14.6503 11.7043
head 1.32185 -7.3553 5.06421
lclavicle -6.25733e-14 2.48525e-15 0
lhumerus -73.323 -23.9934 105.593
lradius 102.479 0 0
lwrist 56.6635 0 0
lhand 7.9363 57.2696 0
lfingers 7.12502 0 0
lthumb 33.167 84.2392 0
rclavicle -6.25733e-14 2.48525e-15 0
rhumerus 27.1559 17.241 -46.6093
rradius 99.4725 0 0
rwrist -29.5605 0 0
rhand -25.6877 -35.5145 0
rfingers 7.12502 0 0
rthumb 0.849473 -65.526 0
616
root -4.19404 15.6951 -40.3571 357.301 -75.7136 369.916
lfemur -8.63886 13.314 -16.7685
ltibia 44.112 0 0
lfoot -22.0479 29.9806 0
ltoes -24.1644 0 0
rfemur -40.9905 -32.5974 18.6687
rtibia 79.3461 0 0
rfoot -15.4578 -19.9581 0
rtoes -3.19088 0 0
lowerback 10.3128 4.98507 -6.69108
upperback -2.87916 5.60538 -1.40172
thorax -9.40235 3.02593 1.1922
lowerneck 1.21875 -10.6936 -11.8647
upperneck -0.652777 -14.5121 11.6607
head 1.3375 -7.28534 5.04183
lclavicle -6.31141e-14 1.98785e-15 0
lhumerus -72.178 -24.0693 105.256
lradius 102.244 0 0
lwrist 55.9607 0 0
lhand 7.82303 56.8809 0
lfingers 7.12502 0 0
lthumb 33.0588 83.8687 0
rclavicle -6.31141e-14 1.98785e-15 0
rhumerus 27.2987 17.326 -46.8499
rradius 100.519 0 0
rwrist -30.2236 0 0
rhand -25.4408 -35.1675 0
rfingers 7.12502 0 0
rthumb 1.08587 -65.1445 0
617
root -4.25538 15.6883 -40.337 358.903 -75.8274 368.303
lfemur -9.54039 13.3366 -16.8754
ltibia 44.5778 0 0
lfoot -21.8344 29.594 0
ltoes -24.0727 0 0
rfemur -40.3993 -32.5921 18.9187
rtibia 79.1544 0 0
rfoot -15.7004 -20.3825 0
rtoes -3.32499 0 0
lowerback 10.3294 4.95894 -6.55126
upperback -2.89558 5.60082 -1.35049
thorax -9.42395 3.01716 1.16914
lowerneck 1.15609 -10.5843 -11.7826
upperneck -0.585663 -14.3626 11.607
head 1.34898 -7.20969 5.01639
lclavicle -6.34297e-14 1.43079e-15 0
lhumerus -70.8951 -24.158 104.865
lradius 102.002 0 0
lwrist 55.2017 0 0
lhand 7.71187 56.4444 0
lfingers 7.12502 0 0
lthumb 32.9527 83.4514 0
rclavicle -6.34297e-14 1.43079e-15 0
rhumerus 27.4504 17.4217 -47.1066
rradius 101.477 0 0
rwrist -30.8455 0 0
rhand -25.1137 -34.7782 0
rfingers 7.12502 0 0
rthumb 1.39936 -64.7141 0
618
root -4.31673 15.6814 -40.317 360.663 -75.9451 366.519
lfemur -10.5294 13.3442 -16.9798
ltibia 45.1006 0 0
lfoot -21.5971 29.1521 0
ltoes -23.9637 0 0
rfemur -39.7798 -32.5639 19.1732
rtibia 78.9045 0 0
rfoot -15.9476 -20.7983 0
rtoes -3.48787 0 0
lowerback 10.3621 4.9265 -6.38968
upperback -2.90738 5.59222 -1.28862
thorax -9.44862 3.00536 1.14551
lowerneck 1.09264 -10.4667 -11.6931
upperneck -0.520265 -14.2016 11.5436
head 1.35774 -7.12824 4.98785
lclavicle -6.35439e-14 7.91164e-16 0
lhumerus -69.461 -24.2703 104.402
lradius 101.767 0 0
lwrist 54.3973 0 0
lhand 7.60306 55.9476 0
lfingers 7.12502 0 0
lthumb 32.849 82.9756 0
rclavicle -6.35439e-14 7.91164e-16 0
rhumerus 27.6392 17.5273 -47.3801
rradius 102.376 0 0
rwrist -31.4379 0 0
rhand -24.6997 -34.3254 0
rfingers 7.12502 0 0
rthumb 1.79637 -64.2123 0
619
root -4.37807 15.6746 -40.2969 362.573 -76.0662 364.572
lfemur -11.6013 13.3378 -17.0815
ltibia 45.6775 0 0
lfoot -21.3372 28.6576 0
ltoes -23.8383 0 0
rfemur -39.1334 -32.5139 19.4315
rtibia 78.599 0 0
rfoot -16.199 -21.2056 0
rtoes -3.67818 0 0
lowerback 10.41 4.88804 -6.20738
upperback -2.91476 5.57975 -1.21661
thorax -9.47617 2.99066 1.12137
lowerneck 1.02845 -10.3411 -11.5964
upperneck -0.456506 -14.0295 11.4709
head 1.36392 -7.0412 4.95633
lclavicle -6.34655e-14 7.38556e-17 0
lhumerus -67.8827 -24.4043 103.873
lradius 101.537 0 0
lwrist 53.5488 0 0
lhand 7.49599 55.3937 0
lfingers 7.12502 0 0
lthumb 32.7471 82.4445 0
rclavicle -6.34655e-14 7.38556e-17 0
rhumerus 27.8612 17.642 -47.6699
rradius 103.216 0 0
rwrist -32.0022 0 0
rhand -24.2035 -33.8131 0
rfingers 7.12502 0 0
rthumb 2.27244 -63.6433 0
620
root -4.43942 15.6678 -40.2768 364.627 -76.1901 362.469
lfemur -12.7512 13.3183 -17.1803
ltibia 46.3054 0 0
lfoot -21.0561 28.1131 0
ltoes -23.6969 0 0
rfemur -38.4617 -32.4427 19.6929
rtibia 78.2405 0 0
rfoot -16.4542 -21.6044 0
rtoes -3.89461 0 0
lowerback 10.4723 4.84385 -6.00539
upperback -2.91793 5.56361 -1.13495
thorax -9.50639 2.9732 1.09677
lowerneck 0.96351 -10.208 -11.4928
upperneck -0.394304 -13.8468 11.3892
head 1.36765 -6.94882 4.92196
lclavicle -6.3203e-14 -7.16265e-16 0
lhumerus -66.1676 -24.5581 103.281
lradius 101.312 0 0
lwrist 52.6574 0 0
lhand 7.39004 54.7861 0
lfingers 7.12502 0 0
lthumb 32.6464 81.8612 0
rclavicle -6.3203e-14 -7.16265e-16 0
rhumerus 28.113 17.7653 -47.9756
rradius 104.001 0 0
rwrist -32.5396 0 0
rhand -23.6295 -33.2449 0
rfingers 7.12502 0 0
rthumb 2.82313 -63.0116 0
621
root -4.50076 15.6609 -40.2568 366.817 -76.3162 360.221
lfemur -13.9745 13.2866 -17.2758
ltibia 46.9813 0 0
lfoot -20.7549 27.5213 0
ltoes -23.5403 0 0
rfemur -37.766 -32.3511 19.9568
rtibia 77.8317 0 0
rfoot -16.7128 -21.9947 0
rtoes -4.13582 0 0
lowerback 10.5482 4.79425 -5.78475
upperback -2.91706 5.54396 -1.04414
thorax -9.53911 2.95311 1.07174
lowerneck 0.897856 -10.0675 -11.3827
upperneck -0.33358 -13.654 11.299
head 1.36907 -6.85132 4.88486
lclavicle -6.27653e-14 -1.57432e-15 0
lhumerus -64.3229 -24.7297 102.63
lradius 101.089 0 0
lwrist 51.7243 0 0
lhand 7.2846 54.1281 0
lfingers 7.12502 0 0
lthumb 32.5464 81.229 0
rclavicle -6.27653e-14 -1.57432e-15 0
rhumerus 28.3909 17.8967 -48.2968
rradius 104.732 0 0
rwrist -33.0516 0 0
rhand -22.9826 -32.6248 0
rfingers 7.12502 0 0
rthumb 3.444 -62.3213 0
